<?xml version="1.0" standalone="no"?>
<!DOCTYPE svg PUBLIC "-//W3C//DTD SVG 20010904//EN"
 "http://www.w3.org/TR/2001/REC-SVG-20010904/DTD/svg10.dtd">
<svg version="1.0" xmlns="http://www.w3.org/2000/svg"
 width="512.000000pt" height="512.000000pt" viewBox="0 0 512.000000 512.000000"
 preserveAspectRatio="xMidYMid meet">
<metadata>
Created by potrace 1.14, written by Peter Selinger 2001-2017
</metadata>
<g transform="translate(0.000000,512.000000) scale(0.100000,-0.100000)"
fill="#000000" stroke="none">
<path d="M4280 5003 c-14 -2 -35 -12 -46 -21 -12 -9 -112 -142 -223 -296
l-201 -278 0 -55 c0 -83 36 -143 134 -220 110 -87 220 -133 318 -133 98 0 130
25 178 140 18 41 38 89 45 105 75 168 195 470 195 490 0 46 -26 89 -89 148
-74 68 -135 101 -216 116 -32 6 -61 10 -64 10 -3 -1 -17 -4 -31 -6z"/>
<path d="M3710 4864 c-36 -14 -70 -31 -76 -37 -12 -13 -27 -79 -45 -202 l-12
-80 -142 -145 c-430 -440 -654 -794 -655 -1035 0 -129 66 -197 147 -152 12 7
68 84 123 172 l100 160 0 66 c0 37 7 104 16 150 36 194 103 325 228 442 74 70
239 202 286 228 64 36 200 249 202 316 2 57 -14 113 -35 128 -29 21 -61 18
-137 -11z"/>
<path d="M3683 4212 c-17 -26 -82 -128 -144 -227 -61 -99 -189 -304 -284 -455
-429 -686 -527 -845 -551 -898 -15 -31 -41 -88 -59 -127 -18 -38 -46 -99 -63
-135 -16 -36 -44 -96 -62 -135 -18 -38 -42 -92 -55 -120 -13 -27 -40 -86 -60
-130 -20 -44 -57 -123 -81 -176 -28 -60 -44 -110 -44 -134 0 -98 111 -225 257
-296 74 -36 100 -43 165 -47 42 -2 88 -2 102 2 42 10 83 53 186 195 55 75 192
261 304 413 151 205 217 304 254 380 28 57 83 171 122 253 68 141 112 231 279
578 38 78 99 205 136 282 37 77 103 213 146 303 44 90 79 168 79 174 0 6 -8 7
-22 3 -43 -14 -142 -17 -182 -5 -176 52 -337 187 -368 307 -6 24 -13 43 -17
43 -3 0 -20 -21 -38 -48z"/>
<path d="M2177 1473 c-8 -27 -17 -57 -20 -68 -3 -11 -31 -110 -62 -220 -31
-110 -63 -225 -72 -255 -17 -66 -19 -72 -78 -280 -61 -214 -60 -206 -41 -235
13 -20 15 -39 10 -95 -9 -88 4 -91 69 -20 25 27 53 50 60 50 19 0 60 46 273
310 100 124 213 263 251 310 224 275 211 251 129 243 -80 -7 -136 6 -243 58
-100 49 -180 120 -219 194 -16 30 -32 55 -36 55 -3 0 -13 -21 -21 -47z"/>
<path d="M478 280 c-14 -11 -33 -36 -42 -55 -33 -68 -57 -65 559 -65 529 0
553 1 577 19 32 25 63 84 55 105 -6 14 -58 16 -565 16 -542 0 -560 -1 -584
-20z"/>
</g>
</svg>
